<svg width="53" height="45" viewBox="0 0 53 45" fill="none" xmlns="http://www.w3.org/2000/svg">
<rect x="1" y="1" width="51" height="43" rx="7" stroke="#C5C5C5" stroke-width="2"/>
<g clip-path="url(#clip0)">
<path d="M21.0703 10.8301C20.5186 9.96094 19.2539 9.7168 18.4336 10.3711C15.7236 12.5342 14 15.7617 14 19.375H26.5L21.0703 10.8301ZM38.2188 14.6875H35.875C34.1514 14.6875 32.75 16.0889 32.75 17.8125V20.9375H14C14 23.4082 15.123 25.6445 16.9443 27.3193C15.2549 27.7539 14 29.2725 14 31.0938C14 33.252 15.748 35 17.9062 35C20.0645 35 21.8125 33.252 21.8125 31.0938C21.8125 30.6592 21.7246 30.2539 21.5977 29.8633C22.6523 30.1514 23.7754 30.3125 24.9375 30.3125C26.0996 30.3125 27.2275 30.1514 28.2773 29.8633C28.1455 30.2539 28.0625 30.6592 28.0625 31.0938C28.0625 33.252 29.8105 35 31.9688 35C34.127 35 35.875 33.252 35.875 31.0938C35.875 29.2725 34.6201 27.7539 32.9307 27.3193C34.752 25.6445 35.875 23.4082 35.875 20.9375V17.8125H38.2188C38.6484 17.8125 39 17.4609 39 17.0313V15.4688C39 15.0391 38.6484 14.6875 38.2188 14.6875ZM17.9062 32.6563C17.0469 32.6563 16.3438 31.9531 16.3438 31.0938C16.3438 30.2344 17.0469 29.5313 17.9062 29.5313C18.7656 29.5313 19.4688 30.2344 19.4688 31.0938C19.4688 31.9531 18.7656 32.6563 17.9062 32.6563ZM33.5312 31.0938C33.5312 31.9531 32.8281 32.6563 31.9688 32.6563C31.1094 32.6563 30.4062 31.9531 30.4062 31.0938C30.4062 30.2344 31.1094 29.5313 31.9688 29.5313C32.8281 29.5313 33.5312 30.2344 33.5312 31.0938Z" fill="#C5C5C5"/>
</g>
<defs>
<clipPath id="clip0">
<rect width="25" height="25" fill="white" transform="translate(16 10)"/>
</clipPath>
</defs>
</svg>
