<svg width="25" height="25" viewBox="0 0 25 25" fill="none" xmlns="http://www.w3.org/2000/svg">
<g clip-path="url(#clip0)">
<path d="M5.07031 0.83008C4.51855 -0.0390604 3.25391 -0.283201 2.43359 0.371096C-0.276367 2.53418 -2 5.76172 -2 9.375H10.5L5.07031 0.83008ZM22.2188 4.6875H19.875C18.1514 4.6875 16.75 6.08887 16.75 7.8125V10.9375H-2C-2 13.4082 -0.876953 15.6445 0.944336 17.3193C-0.745117 17.7539 -2 19.2725 -2 21.0938C-2 23.252 -0.251953 25 1.90625 25C4.06445 25 5.8125 23.252 5.8125 21.0938C5.8125 20.6592 5.72461 20.2539 5.59766 19.8633C6.65234 20.1514 7.77539 20.3125 8.9375 20.3125C10.0996 20.3125 11.2275 20.1514 12.2773 19.8633C12.1455 20.2539 12.0625 20.6592 12.0625 21.0938C12.0625 23.252 13.8105 25 15.9688 25C18.127 25 19.875 23.252 19.875 21.0938C19.875 19.2725 18.6201 17.7539 16.9307 17.3193C18.752 15.6445 19.875 13.4082 19.875 10.9375V7.8125H22.2188C22.6484 7.8125 23 7.46094 23 7.03125V5.46875C23 5.03906 22.6484 4.6875 22.2188 4.6875ZM1.90625 22.6563C1.04688 22.6563 0.34375 21.9531 0.34375 21.0938C0.34375 20.2344 1.04688 19.5313 1.90625 19.5313C2.76562 19.5313 3.46875 20.2344 3.46875 21.0938C3.46875 21.9531 2.76562 22.6563 1.90625 22.6563ZM17.5312 21.0938C17.5312 21.9531 16.8281 22.6563 15.9688 22.6563C15.1094 22.6563 14.4062 21.9531 14.4062 21.0938C14.4062 20.2344 15.1094 19.5313 15.9688 19.5313C16.8281 19.5313 17.5312 20.2344 17.5312 21.0938Z" fill="#C5C5C5"/>
</g>
<defs>
<clipPath id="clip0">
<rect width="25" height="25" fill="white"/>
</clipPath>
</defs>
</svg>
